<?xml version="1.0" encoding="iso-8859-1"?>
<!-- Uploaded to: SVG Repo, www.svgrepo.com, Generator: SVG Repo Mixer Tools -->
<svg height="800px" width="800px" version="1.1" id="Layer_1" xmlns="http://www.w3.org/2000/svg" xmlns:xlink="http://www.w3.org/1999/xlink" 
	 viewBox="0 0 511.504 511.504" xml:space="preserve">
<g>
	<path style="fill:#ECE8D8;" d="M437.292,0.55l-46.124,18.026c-20.551,5.252-41.649,7.91-62.835,7.91h-145.17
		c-21.177,0-42.284-2.657-62.835-7.91L74.213,0.55C60.539-2.946,48.754,10.86,53.989,24.234l25.212,64.044
		c-23.049,103.989-23.34,216.647,0,335.448l-20.913,63.559c-5.005,12.773,5.588,26.236,18.873,23.967l52.206-8.889
		c7.795-1.333,15.651-2.295,23.111-3.637c15.466-2.79,31.082-4.379,46.777-4.379H312.24c15.695,0,31.32,1.589,46.777,4.379
		c7.468,1.342,15.316,2.304,23.119,3.637l52.198,8.889c13.285,2.269,23.879-11.193,18.882-23.967l-20.913-63.559
		c23.755-122.915,23.42-235.185,0-335.448l25.212-64.044C462.75,10.86,450.957-2.946,437.292,0.55"/>
	<g>
		<path style="fill:#BC8D2F;" d="M176.302,361.932c-24.338,0-44.138-19.8-44.138-44.138c0-13.55,6.215-26.183,17.046-34.657
			c1.96-1.536,4.493-2.154,6.965-1.739c2.463,0.441,4.626,1.898,5.959,4.017c0.68,1.095,1.006,1.668,1.43,2.198l19.023,23.896
			l23.861,18.997c0.009,0,0.018,0.009,0.018,0.009c0.53,0.424,1.103,0.75,1.66,1.103c2.136,1.324,3.866,3.646,4.308,6.126
			c0.441,2.463,0.071,5.173-1.474,7.142C202.476,355.718,189.844,361.932,176.302,361.932"/>
		<path style="fill:#BC8D2F;" d="M132.164,370.76c-2.26,0-4.52-0.865-6.241-2.586c-3.452-3.452-3.452-9.031,0-12.482l19.165-19.174
			c3.452-3.452,9.039-3.452,12.482,0c3.452,3.452,3.452,9.039,0,12.482l-19.165,19.174
			C136.684,369.895,134.424,370.76,132.164,370.76"/>
	</g>
	<g>
		<path style="fill:#FEC24C;" d="M291.061,211.863c-2.33,0-4.581-0.918-6.241-2.586c-1.898-1.898-2.834-4.564-2.534-7.23
			l3.558-31.356c2.092-18.776,16.666-33.359,35.46-35.46l30.755-2.781c2.631-0.265,5.182,0.697,7.036,2.551
			c1.854,1.854,2.781,4.431,2.551,7.036l-2.772,30.57c-2.11,18.97-16.684,33.554-35.478,35.655l-31.338,3.54
			C291.723,211.846,291.387,211.863,291.061,211.863"/>
		<path style="fill:#FEC24C;" d="M282.384,291.372c-8.836,0-17.673-2.948-25.053-8.836l-24.726-19.624
			c-2.101-1.668-3.337-4.211-3.337-6.903c-0.009-2.692,1.227-5.235,3.328-6.912l24.726-19.703
			c14.76-11.794,35.381-11.785,50.141,0.009l24.452,19.73c2.074,1.677,3.284,4.202,3.284,6.877
			c-0.009,2.675-1.218,5.199-3.302,6.868L307.481,282.5C300.092,288.415,291.229,291.372,282.384,291.372"/>
		<path style="fill:#FEC24C;" d="M257.871,231.346h0.088H257.871z M238.097,264.829h-0.026c-2.684-0.009-5.226-1.245-6.894-3.346
			l-19.544-24.655c-11.794-14.733-11.794-35.354,0.026-50.123l19.535-24.488c1.668-2.083,4.202-3.31,6.877-3.319
			c2.578,0.035,5.217,1.201,6.894,3.284l19.774,24.497c11.847,14.795,11.847,35.416,0.026,50.185c0,0-0.009,0-0.009,0.009
			l-19.774,24.655C243.305,263.611,240.772,264.829,238.097,264.829L238.097,264.829z"/>
		<path style="fill:#FEC24C;" d="M220.518,353.165c-8.845,0-17.682-2.948-25.062-8.845l-24.647-19.624
			c-2.11-1.668-3.328-4.202-3.337-6.894c0-2.692,1.218-5.226,3.319-6.903l24.655-19.703c14.76-11.802,35.381-11.802,50.15,0
			l24.514,19.721c2.083,1.677,3.302,4.202,3.293,6.886c0,2.675-1.218,5.208-3.31,6.877l-24.497,19.624
			C238.217,350.208,229.363,353.165,220.518,353.165"/>
		<path style="fill:#FEC24C;" d="M176.302,326.622h-0.009c-2.684,0-5.226-1.236-6.894-3.328l-19.624-24.655
			c-11.802-14.751-11.802-35.372,0.018-50.141l19.615-24.497c1.677-2.083,4.211-3.31,6.886-3.31h0.009
			c2.675,0,5.199,1.218,6.877,3.293l19.703,24.497c11.829,14.786,11.829,35.399,0.018,50.167l-19.703,24.655
			C181.519,325.395,178.986,326.622,176.302,326.622"/>
	</g>
	<g>
		<path style="fill:#BC8D2F;" d="M352.854,264.829h-26.483c-4.873,0-8.828-3.946-8.828-8.828c0-4.882,3.955-8.828,8.828-8.828
			h26.483c4.873,0,8.828,3.946,8.828,8.828C361.681,260.883,357.727,264.829,352.854,264.829"/>
		<path style="fill:#BC8D2F;" d="M291.061,326.622h-26.483c-4.873,0-8.828-3.946-8.828-8.828c0-4.882,3.955-8.828,8.828-8.828
			h26.483c4.873,0,8.828,3.946,8.828,8.828C299.888,322.676,295.934,326.622,291.061,326.622"/>
		<path style="fill:#BC8D2F;" d="M238.095,176.553c-4.873,0-8.828-3.946-8.828-8.828v-26.483c0-4.882,3.955-8.828,8.828-8.828
			c4.873,0,8.828,3.946,8.828,8.828v26.483C246.923,172.607,242.968,176.553,238.095,176.553"/>
		<path style="fill:#BC8D2F;" d="M176.302,238.346c-4.873,0-8.828-3.946-8.828-8.828v-26.483c0-4.882,3.955-8.828,8.828-8.828
			s8.828,3.946,8.828,8.828v26.483C185.13,234.4,181.175,238.346,176.302,238.346"/>
		<path style="fill:#BC8D2F;" d="M352.854,150.07c-2.26,0-4.52-0.865-6.241-2.586c-3.452-3.452-3.452-9.031,0-12.482l17.655-17.655
			c3.452-3.452,9.031-3.452,12.482,0s3.452,9.031,0,12.482l-17.655,17.655C357.374,149.205,355.114,150.07,352.854,150.07"/>
	</g>
	<g>
		<path style="fill:#C9C3A7;" d="M299.888,423.726h-88.276c-4.873,0-8.828-3.946-8.828-8.828c0-4.882,3.955-8.828,8.828-8.828
			h88.276c4.873,0,8.828,3.946,8.828,8.828C308.716,419.78,304.761,423.726,299.888,423.726"/>
		<path style="fill:#C9C3A7;" d="M317.544,459.036H193.957c-4.873,0-8.828-3.946-8.828-8.828c0-4.882,3.955-8.828,8.828-8.828
			h123.586c4.873,0,8.828,3.946,8.828,8.828C326.371,455.09,322.416,459.036,317.544,459.036"/>
	</g>
</g>
</svg>