<?xml version="1.0" encoding="iso-8859-1"?>
<!-- Uploaded to: SVG Repo, www.svgrepo.com, Generator: SVG Repo Mixer Tools -->
<svg height="800px" width="800px" version="1.1" id="Layer_1" xmlns="http://www.w3.org/2000/svg" xmlns:xlink="http://www.w3.org/1999/xlink" 
	 viewBox="0 0 512 512" xml:space="preserve">
<g>
	<g>
		<path style="fill:#9E5A23;" d="M373.153,190.915h-60.746c-4.79,0-8.678-3.879-8.678-8.678s3.888-8.678,8.678-8.678h60.746
			c4.79,0,8.678,3.879,8.678,8.678S377.943,190.915,373.153,190.915"/>
		<path style="fill:#9E5A23;" d="M69.424,190.915H8.678c-4.79,0-8.678-3.879-8.678-8.678s3.888-8.678,8.678-8.678h60.746
			c4.79,0,8.678,3.879,8.678,8.678S74.214,190.915,69.424,190.915"/>
		<path style="fill:#9E5A23;" d="M190.915,512c-4.79,0-8.678-3.879-8.678-8.678V373.153c0-4.799,3.888-8.678,8.678-8.678
			s8.678,3.879,8.678,8.678v130.169C199.593,508.121,195.705,512,190.915,512"/>
	</g>
	<g>
		<path style="fill:#4CAF50;" d="M381.826,512c-1.241,0-2.491-0.26-3.679-0.824c-4.339-2.031-6.213-7.203-4.174-11.542
			c10.388-22.138,18.918-155.084-33.445-216.298c-3.124-3.645-2.69-9.112,0.955-12.236c3.645-3.107,9.112-2.673,12.227,0.955
			c56.311,65.822,50.549,203.906,35.979,234.956C388.204,510.152,385.08,512,381.826,512"/>
		<path style="fill:#4CAF50;" d="M390.504,433.898c-1.224,0-2.456-0.252-3.627-0.798c-4.356-2.005-6.257-7.168-4.244-11.516
			c2.083-4.513,4.469-11.412,7.229-19.404c6.925-19.994,15.534-44.882,28.698-60.633c3.081-3.671,8.548-4.148,12.227-1.093
			c3.671,3.081,4.165,8.556,1.093,12.236c-11.125,13.295-19.499,37.498-25.617,55.166c-2.916,8.426-5.432,15.707-7.88,21.001
			C396.926,432.033,393.784,433.898,390.504,433.898"/>
		<path style="fill:#4CAF50;" d="M389.149,476.584c-3.61,0-6.977-2.265-8.209-5.866c-3.975-11.594-11.325-21.686-21.851-30.017
			c-3.758-2.977-4.391-8.426-1.414-12.184c2.977-3.775,8.426-4.408,12.184-1.423c13.182,10.422,22.433,23.214,27.5,38.001
			c1.553,4.53-0.859,9.468-5.398,11.021C391.032,476.428,390.077,476.584,389.149,476.584"/>
	</g>
	<g>
		<path style="fill:#81C784;" d="M425.22,347.119c47.963,0,86.78-38.817,86.78-86.78C464.037,260.339,425.22,299.156,425.22,347.119
			"/>
		<path style="fill:#81C784;" d="M364.475,433.898c-38.339-1.649-68.027-34.009-66.369-72.348
			C336.436,363.199,366.123,395.559,364.475,433.898"/>
	</g>
	<g>
		<path style="fill:#4CAF50;" d="M372.767,331.441c-0.703,0-1.415-0.087-2.135-0.26c-4.643-1.172-7.454-5.892-6.292-10.535
			c5.658-22.424,18.015-47.278,28.767-57.821c3.419-3.367,8.921-3.315,12.271,0.113c3.358,3.428,3.306,8.921-0.113,12.279
			c-8.478,8.314-19.291,30.59-24.09,49.664C380.178,328.82,376.646,331.441,372.767,331.441"/>
		<path style="fill:#4CAF50;" d="M384.344,373.153c-2.222,0-4.443-0.85-6.135-2.543l-2.187-2.204
			c-8.253-8.34-25.418-25.687-40.205-30.373c-4.565-1.449-7.099-6.318-5.649-10.891c1.449-4.582,6.344-7.099,10.9-5.649
			c18.866,5.979,37.35,24.671,47.286,34.703l2.126,2.143c3.393,3.393,3.393,8.878,0.009,12.271
			C388.787,372.302,386.565,373.153,384.344,373.153"/>
	</g>
	<polygon style="fill:#FEC24C;" points="234.305,147.525 208.271,130.169 190.915,173.559 173.559,130.169 147.525,147.525 
		69.424,147.525 69.424,216.949 112.814,216.949 112.814,373.153 260.339,373.153 260.339,216.949 312.407,216.949 312.407,147.525 
			"/>
	<path style="fill:#BC8D2F;" d="M234.305,52.068h-86.78l5.892-35.354C155.023,7.073,163.371,0,173.151,0h35.528
		c9.78,0,18.128,7.073,19.734,16.714L234.305,52.068z"/>
	<path style="fill:#FEC24C;" d="M156.903,52.068c-0.451,2.803-0.703,5.701-0.703,8.678c0,23.96,15.542,43.39,34.712,43.39
		c19.178,0,34.712-19.43,34.712-43.39c0-2.977-0.243-5.875-0.694-8.678H156.903z"/>
	<g>
		<path style="fill:#BC8D2F;" d="M138.847,329.763c-4.79,0-8.678-3.879-8.678-8.678v-26.034c0-4.799,3.888-8.678,8.678-8.678
			s8.678,3.879,8.678,8.678v26.034C147.525,325.884,143.638,329.763,138.847,329.763"/>
		<path style="fill:#BC8D2F;" d="M156.203,303.729h-17.356c-4.79,0-8.678-3.879-8.678-8.678s3.888-8.678,8.678-8.678h17.356
			c4.79,0,8.678,3.879,8.678,8.678S160.994,303.729,156.203,303.729"/>
		<polygon style="fill:#BC8D2F;" points="147.525,260.339 234.305,260.339 234.305,208.271 147.525,208.271 		"/>
		<path style="fill:#BC8D2F;" d="M260.339,60.746H121.492c-4.79,0-8.678-3.879-8.678-8.678s3.888-8.678,8.678-8.678h138.847
			c4.79,0,8.678,3.879,8.678,8.678S265.129,60.746,260.339,60.746"/>
		<path style="fill:#BC8D2F;" d="M147.525,321.085c0-4.799-3.888-8.678-8.678-8.678h-26.034v17.356h26.034
			C143.638,329.763,147.525,325.884,147.525,321.085"/>
	</g>
</g>
</svg>