<?xml version="1.0" encoding="iso-8859-1"?>
<!-- Uploaded to: SVG Repo, www.svgrepo.com, Generator: SVG Repo Mixer Tools -->
<svg height="800px" width="800px" version="1.1" id="Layer_1" xmlns="http://www.w3.org/2000/svg" xmlns:xlink="http://www.w3.org/1999/xlink" 
	 viewBox="0 0 512 512" xml:space="preserve">
<g>
	<g>
		<path style="fill:#FEC24C;" d="M267.798,145.49l-11.793,16.64l-11.981-16.64c-18.415-25.779-18.415-60.399,0-86.178l11.981-16.649
			l11.793,16.649C286.213,85.091,286.213,119.711,267.798,145.49"/>
		<path style="fill:#FEC24C;" d="M252.562,210.294l3.43,20.105l-20.241-3.294c-31.249-5.205-55.731-29.687-60.937-60.937
			l-3.294-20.241l20.105,3.43C222.866,154.563,247.357,179.045,252.562,210.294"/>
	</g>
	<path style="fill:#BC8D2F;" d="M171.519,154.458c-2.185,0-4.369-0.836-6.042-2.5l-26.436-26.462c-3.337-3.328-3.337-8.73,0-12.066
		c3.328-3.328,8.738-3.328,12.066,0l26.445,26.462c3.337,3.337,3.337,8.738,0,12.075
		C175.888,153.622,173.703,154.458,171.519,154.458"/>
	<path style="fill:#FEC24C;" d="M252.562,304.16l3.43,20.105l-20.241-3.294c-31.249-5.205-55.731-29.687-60.937-60.937
		l-3.294-20.241l20.105,3.43C222.866,248.429,247.357,272.911,252.562,304.16"/>
	<path style="fill:#BC8D2F;" d="M171.519,248.325c-2.185,0-4.369-0.836-6.042-2.5l-26.436-26.462c-3.337-3.328-3.337-8.73,0-12.066
		c3.328-3.328,8.738-3.328,12.066,0l26.445,26.462c3.337,3.337,3.337,8.738,0,12.075
		C175.888,247.489,173.703,248.325,171.519,248.325"/>
	<path style="fill:#FEC24C;" d="M252.562,398.027l3.43,20.105l-20.241-3.294c-31.249-5.205-55.731-29.687-60.937-60.937
		l-3.294-20.241l20.105,3.43C222.866,342.296,247.357,366.778,252.562,398.027"/>
	<path style="fill:#BC8D2F;" d="M171.519,342.192c-2.185,0-4.369-0.836-6.042-2.5l-26.436-26.462c-3.337-3.328-3.337-8.73,0-12.066
		c3.328-3.328,8.738-3.328,12.066,0l26.445,26.462c3.337,3.337,3.337,8.738,0,12.075
		C175.888,341.356,173.703,342.192,171.519,342.192"/>
	<path style="fill:#FEC24C;" d="M259.438,210.294l-3.43,20.105l20.241-3.294c31.249-5.205,55.731-29.687,60.937-60.937l3.294-20.241
		l-20.105,3.43C289.134,154.563,264.643,179.045,259.438,210.294"/>
	<path style="fill:#BC8D2F;" d="M340.481,154.458c-2.185,0-4.369-0.836-6.033-2.492c-3.337-3.337-3.337-8.738,0-12.075
		l26.445-26.462c3.328-3.328,8.738-3.328,12.066,0c3.337,3.337,3.337,8.738,0,12.066l-26.445,26.462
		C344.85,153.622,342.666,154.458,340.481,154.458"/>
	<path style="fill:#FEC24C;" d="M259.438,304.16l-3.43,20.105l20.241-3.294c31.249-5.205,55.731-29.687,60.937-60.937l3.294-20.241
		l-20.105,3.43C289.134,248.429,264.643,272.911,259.438,304.16"/>
	<path style="fill:#BC8D2F;" d="M340.481,248.325c-2.185,0-4.369-0.836-6.033-2.492c-3.337-3.337-3.337-8.738,0-12.075
		l26.445-26.462c3.328-3.328,8.738-3.328,12.066,0c3.337,3.337,3.337,8.738,0,12.066l-26.445,26.462
		C344.85,247.489,342.666,248.325,340.481,248.325"/>
	<path style="fill:#FEC24C;" d="M259.438,398.027l-3.43,20.105l20.241-3.294c31.249-5.205,55.731-29.687,60.937-60.937l3.294-20.241
		l-20.105,3.43C289.134,342.296,264.643,366.778,259.438,398.027"/>
	<g>
		<path style="fill:#BC8D2F;" d="M340.481,342.192c-2.185,0-4.369-0.836-6.033-2.492c-3.337-3.337-3.337-8.738,0-12.075
			l26.445-26.462c3.328-3.328,8.738-3.328,12.066,0c3.337,3.337,3.337,8.738,0,12.066l-26.445,26.462
			C344.85,341.356,342.666,342.192,340.481,342.192"/>
		<path style="fill:#BC8D2F;" d="M255.993,418.133l-20.241-3.294c-0.7-0.119-1.348-0.375-2.048-0.512
			c-2.039,3.678-3.294,7.842-3.294,12.339c0,14.14,11.46,25.6,25.6,25.6c14.131,0,25.6-11.46,25.6-25.6
			c0-4.497-1.263-8.661-3.302-12.339c-0.7,0.137-1.348,0.393-2.057,0.512l-20.241,3.294H255.993z"/>
		<path style="fill:#BC8D2F;" d="M256.006,512c-4.71,0-8.533-3.823-8.533-8.533v-51.2c0-4.71,3.823-8.533,8.533-8.533
			c4.71,0,8.533,3.823,8.533,8.533v51.2C264.54,508.177,260.717,512,256.006,512"/>
		<path style="fill:#BC8D2F;" d="M256.006,51.2c-4.71,0-8.533-3.814-8.533-8.533l-0.009-34.133c0-4.71,3.814-8.533,8.525-8.533
			h0.009c4.71,0,8.533,3.814,8.533,8.533l0.009,34.133C264.54,47.377,260.725,51.2,256.006,51.2L256.006,51.2z"/>
	</g>
</g>
</svg>